<svg xmlns="http://www.w3.org/2000/svg" viewBox="0 0 280 140" width="280" height="140">
  <defs>
    <linearGradient id="g" x1="0%" y1="0%" x2="0%" y2="100%">
      <stop offset="0%" style="stop-color:#FFD700"/>
      <stop offset="55%" style="stop-color:#DAA520"/>
      <stop offset="100%" style="stop-color:#B8860B"/>
    </linearGradient>
    <linearGradient id="g2" x1="0%" y1="0%" x2="100%" y2="100%">
      <stop offset="0%" style="stop-color:#FFE55C"/>
      <stop offset="100%" style="stop-color:#C9A227"/>
    </linearGradient>
  </defs>
  <!-- shield -->
  <path fill="url(#g)" stroke="#8B6914" stroke-width="1.2"
        d="M70 12 L110 12 L118 18 L118 52 Q118 78 70 108 Q22 78 22 52 L22 18 Z"/>
  <circle cx="70" cy="28" r="14" fill="#FFF8DC" opacity="0.95"/>
  <path fill="#C9A227" d="M38 38 L46 34 L54 38 L62 34 L70 38 L78 34 L86 38 L94 34 L102 38 L102 42 L38 42 Z"/>
  <path fill="none" stroke="#A67C00" stroke-width="0.8" d="M46 34 L54 38 L62 34 L70 38 L78 34 L86 38 L94 34"/>
  <g opacity="0.85">
    <path stroke="#B8860B" stroke-width="1" d="M32 72 L108 88 M28 80 L104 96 M24 88 L100 104"/>
  </g>
  <!-- wordmark -->
  <text x="130" y="58" font-family="Arial Black, Helvetica Neue, sans-serif" font-size="22" font-weight="800" fill="url(#g2)" letter-spacing="0.5">GOLDEN STATE</text>
  <text x="130" y="88" font-family="Arial, Helvetica Neue, sans-serif" font-size="11" font-weight="600" fill="#B8860B" letter-spacing="5">INTEGRATED SYSTEMS</text>
</svg>
